# xmcd CD database file generated by Grip 3.2.0
# 
# Track frame offsets:
#       187
#       24137
#       47965
#       70712
#       89530
#       112687
#       133532
#       152702
#       180017
#       212212
# 
# Disc length: 3138 seconds
# 
# Revision: 2
# Processed by: cddbd v1.5.1PL2 Copyright (c) Steve Scherf et al.
# Submitted via: Grip 3.2.0
# 
DISCID=750c400a
DTITLE=Soul Mission - Soul Mission
DYEAR=1900
DGENRE=Blues
TTITLE0=Table In The Widerness
TTITLE1=Some Sweet Day (Ain't That Wonderful)
TTITLE2=Soul Mission
TTITLE3=Cross of Stone
TTITLE4=Tear This House Down
TTITLE5=One Blood
TTITLE6=Settled In Heaven
TTITLE7=He Is Amazing
TTITLE8=Salvation Road
TTITLE9=Give It All To Jesus
EXTD=
EXTT0=
EXTT1=
EXTT2=
EXTT3=
EXTT4=
EXTT5=
EXTT6=
EXTT7=
EXTT8=
EXTT9=
PLAYORDER=
